PathFileType	4	(x/y/z)	S10_P20_T25
DataRate	CameraRate	NumFrames	NumMarkers	Units	OrigDataRate	OrigDataStartFrame	OrigNumFrames
240	240	8	51	mm	240	298	396
Frame#	Time	Sternum			R.Acromium			L.Acromium			Top.Head			R.ASIS			L.ASIS			R.PSIS			L.PSIS			R.Great.Tro			L.Great.Tro			R.Iliac.Crest			L.Iliac.Crest			V.Sacral			R.Thigh.Upper.Post			R.Thigh.Lower.Ant			R.Thigh.Lower.Post			R.Thigh.Upper.Ant			R.Knee.Lat			R.Knee.Med			R.Shank.Upper.Post			R.Shank.Lower.Ant			R.Shank.Lower.Post			R.Shank.Upper.Ant			R.Ankle.Lat			R.Ankle.Med			R.Heel.Upper			R.Heel.Med			R.Heel.Lat			R.Toe.Lat			R.Toe.Med			R.Toe.Tip			L.Thigh.Upper.Post			L.Thigh.Lower.Ant			L.Thigh.Lower.Post			L.Thigh.Upper.Ant			L.Knee.Lat			L.Knee.Med			L.Shank.Upper.Post			L.Shank.Lower.Ant			L.Shank.Lower.Post			L.Shank.Upper.Ant			L.Ankle.Lat			L.Ankle.Med			L.Heel.Upper			L.Heel.Med			L.Heel.Lat			L.Toe.Lat			L.Toe.Med			L.Toe.Tip			Cervical.Spine			Back			
		X1	Y1	Z1	X2	Y2	Z2	X3	Y3	Z3	X4	Y4	Z4	X5	Y5	Z5	X6	Y6	Z6	X7	Y7	Z7	X8	Y8	Z8	X9	Y9	Z9	X10	Y10	Z10	X11	Y11	Z11	X12	Y12	Z12	X13	Y13	Z13	X14	Y14	Z14	X15	Y15	Z15	X16	Y16	Z16	X17	Y17	Z17	X18	Y18	Z18	X19	Y19	Z19	X20	Y20	Z20	X21	Y21	Z21	X22	Y22	Z22	X23	Y23	Z23	X24	Y24	Z24	X25	Y25	Z25	X26	Y26	Z26	X27	Y27	Z27	X28	Y28	Z28	X29	Y29	Z29	X30	Y30	Z30	X31	Y31	Z31	X32	Y32	Z32	X33	Y33	Z33	X34	Y34	Z34	X35	Y35	Z35	X36	Y36	Z36	X37	Y37	Z37	X38	Y38	Z38	X39	Y39	Z39	X40	Y40	Z40	X41	Y41	Z41	X42	Y42	Z42	X43	Y43	Z43	X44	Y44	Z44	X45	Y45	Z45	X46	Y46	Z46	X47	Y47	Z47	X48	Y48	Z48	X49	Y49	Z49	X50	Y50	Z50	X51	Y51	Z51	

298	1.2375	315.27	1283.8	291.87	180.62	1440.6	433.76	201.67	1467	134.56	184.62	1762.1	309.61	251.39	1013.6	396.64	266.41	1034.3	167.69	56.732	1034.3	297.78	67.051	1044.8	217.06	177.65	933.16	463.95	208.44	973.62	104.28	151.32	1092.4	435.12	201.7	1107.3	137.17	40.826	1004.9	257.05	250.36	731.51	473.96	328.06	671.35	445.67	269.59	643.9	470.7	309.89	760.88	443.95	289.69	518.85	438.4	311.29	518.24	306.88	105.72	390.07	418.27	114.09	298.62	410.28	57.942	333.67	410.94	168	353.64	420.22	3.9637	239.68	388.87	26.292	237.74	311.8	-61.187	247	328.91	-72.311	221.8	300.6	-81.671	230.24	361.66	14.717	97.625	426.56	52.984	78.607	325.41	99.146	51.379	374.68	185.52	688.44	120.55	260.54	613.04	151.43	190.17	595.78	147.35	263.13	700.96	125.26	229.32	513.12	162.61	233.79	516.96	290.77	145.47	307	163.9	200.54	212.98	185.01	139.75	230.14	175.22	207.24	288.87	172.95	152.74	108.05	190.69	164.99	120.6	277.55	80.724	78.314	234.09	90.155	46.456	267.72	88.468	48.221	202.96	267.1	41.494	171.1	290.96	46.094	280.74	347.16	56.812	234.85	114.41	1503.6	288.95	30.228	1296	269.93
299	1.2417	320.31	1284.5	292.35	185.01	1441.1	433.8	207.7	1468	134.77	190.01	1762.7	309.88	256	1014.4	396.55	271.66	1034.7	167.65	61.65	1035.1	297.28	72.205	1045.5	216.53	182.42	934.31	463.92	213.51	973.84	104.24	155.84	1093.3	434.74	207.21	1107.8	136.9	45.831	1005.7	256.52	257.23	733.12	474.02	335.27	673.59	445.33	277.2	645.68	470.84	316.23	762.95	443.61	298.14	520.54	438.24	319.44	520.4	306.76	115.81	388.75	418.07	125.75	297.49	410.19	69.029	331.55	410.77	178.69	353.41	420.15	16.527	236.56	388.63	39.192	234.84	311.71	-49.064	241.8	328.5	-59.34	216.11	300.35	-69.042	224.62	361.35	31.135	95.499	427.28	70.151	76.95	326.27	116.96	51.445	375.8	188.36	688.99	120.6	262.8	612.95	151.3	192.29	596.28	147.34	266.07	700.86	125.17	230.73	513.19	162.38	235.83	516.96	290.5	146.19	307.29	163.84	200.95	213.1	184.89	140.27	230.48	175.16	207.89	288.98	172.79	152.88	108.18	190.69	165.12	120.82	277.52	80.786	78.463	234.11	90.171	46.602	267.72	88.535	48.361	203	267.14	41.425	171.08	291.01	46.01	280.75	347.27	56.591	234.83	119.64	1504.2	288.67	35.539	1296.8	268.84
300	1.2458	325.35	1285.2	292.82	189.42	1441.5	433.83	213.72	1468.9	134.98	195.39	1763.2	310.15	260.61	1015.3	396.47	276.89	1035	167.6	66.568	1035.9	296.81	77.351	1046.2	216.04	187.22	935.42	463.9	218.58	974.04	104.2	160.38	1094.2	434.36	212.68	1108.3	136.63	50.834	1006.5	256.03	264.06	734.7	474.06	342.41	675.8	444.96	284.77	647.45	470.95	322.52	764.99	443.25	306.46	522.21	438.04	327.42	522.54	306.64	125.9	387.31	417.87	137.47	296.27	410.12	80.164	329.3	410.62	189.39	353.11	420.07	29.23	233.27	388.44	52.22	231.8	311.64	-36.766	236.39	328.17	-46.175	210.2	300.18	-56.202	218.78	361.12	47.765	93.321	428.03	87.505	75.279	327.14	134.94	51.543	376.9	191.2	689.54	120.63	265.05	612.87	151.16	194.39	596.79	147.31	269.01	700.76	125.08	232.12	513.28	162.14	237.8	516.96	290.21	146.89	307.6	163.77	201.36	213.23	184.77	140.79	230.82	175.09	208.52	289.11	172.63	153.02	108.3	190.69	165.24	121.05	277.48	80.857	78.613	234.14	90.204	46.747	267.72	88.604	48.509	203.03	267.18	41.356	171.07	291.06	45.925	280.76	347.38	56.373	234.8	124.88	1504.8	288.41	40.849	1297.6	267.78
301	1.25	330.38	1285.8	293.28	193.84	1441.9	433.87	219.73	1469.8	135.22	200.76	1763.8	310.44	265.23	1016.1	396.39	282.11	1035.4	167.56	71.487	1036.7	296.36	82.49	1046.8	215.57	192.05	936.51	463.89	223.65	974.21	104.18	164.93	1095.1	434	218.11	1108.8	136.37	55.834	1007.2	255.57	270.86	736.26	474.1	349.5	677.96	444.57	292.27	649.19	471.05	328.76	766.98	442.87	314.66	523.84	437.82	335.23	524.66	306.51	135.98	385.75	417.68	149.24	294.97	410.06	91.353	326.91	410.5	200.09	352.74	419.99	42.078	229.83	388.3	65.378	228.64	311.62	-24.285	230.76	327.91	-32.809	204.11	300.09	-43.141	212.73	360.98	64.597	91.103	428.81	105.03	73.606	328.02	153.06	51.68	377.99	194.03	690.09	120.67	267.28	612.79	151.03	196.48	597.3	147.28	271.93	700.66	124.99	233.49	513.37	161.89	239.69	516.96	289.93	147.59	307.91	163.69	201.76	213.36	184.64	141.31	231.18	175.01	209.13	289.25	172.46	153.17	108.43	190.69	165.35	121.29	277.44	80.937	78.765	234.17	90.255	46.889	267.73	88.677	48.666	203.06	267.22	41.288	171.05	291.1	45.84	280.77	347.48	56.159	234.78	130.11	1505.4	288.15	46.155	1298.3	266.75
302	1.2542	335.41	1286.4	293.71	198.27	1442.3	433.9	225.74	1470.7	135.46	206.12	1764.3	310.74	269.86	1016.9	396.31	287.32	1035.7	167.52	76.408	1037.4	295.95	87.623	1047.5	215.13	196.92	937.56	463.89	228.72	974.36	104.17	169.51	1096	433.65	223.52	1109.2	136.11	60.833	1007.9	255.13	277.62	737.79	474.12	356.52	680.08	444.17	299.72	650.9	471.11	334.94	768.92	442.47	322.73	525.43	437.56	342.86	526.74	306.39	146.07	384.07	417.5	161.06	293.6	410.02	102.6	324.41	410.4	210.78	352.3	419.91	55.074	226.24	388.21	78.67	225.34	311.64	-11.611	224.95	327.73	-19.234	197.86	300.08	-29.851	206.49	360.92	81.617	88.858	429.62	122.71	71.941	328.91	171.3	51.859	379.05	196.85	690.65	120.69	269.49	612.72	150.89	198.56	597.82	147.24	274.85	700.56	124.91	234.83	513.46	161.63	241.51	516.96	289.64	148.28	308.23	163.6	202.14	213.51	184.51	141.82	231.54	174.92	209.73	289.4	172.29	153.31	108.56	190.69	165.45	121.53	277.4	81.029	78.921	234.21	90.328	47.03	267.76	88.753	48.834	203.09	267.26	41.221	171.04	291.14	45.753	280.79	347.58	55.949	234.75	135.35	1506	287.91	51.456	1299	265.74
303	1.2583	340.44	1287	294.13	202.72	1442.7	433.94	231.74	1471.6	135.71	211.47	1764.8	311.05	274.51	1017.7	396.23	292.53	1036	167.48	81.331	1038.1	295.56	92.754	1048	214.73	201.82	938.57	463.89	233.79	974.49	104.17	174.1	1096.8	433.32	228.9	1109.6	135.86	65.831	1008.6	254.73	284.33	739.28	474.13	363.48	682.14	443.74	307.1	652.57	471.15	341.07	770.8	442.06	330.67	526.98	437.28	350.31	528.79	306.26	156.17	382.27	417.33	172.94	292.16	409.99	113.9	321.78	410.33	221.48	351.79	419.83	68.223	222.52	388.17	92.097	221.94	311.71	1.2667	218.98	327.62	-5.4406	191.46	300.16	-16.326	200.1	360.94	98.812	86.593	430.44	140.53	70.293	329.81	189.64	52.08	380.08	199.67	691.2	120.7	271.7	612.65	150.76	200.63	598.35	147.2	277.75	700.46	124.84	236.15	513.57	161.36	243.25	516.97	289.36	148.95	308.56	163.5	202.52	213.66	184.37	142.32	231.91	174.83	210.32	289.56	172.11	153.45	108.7	190.69	165.54	121.78	277.35	81.132	79.081	234.26	90.423	47.169	267.79	88.831	49.013	203.12	267.3	41.156	171.02	291.17	45.664	280.81	347.69	55.744	234.72	140.58	1506.5	287.67	56.751	1299.6	264.76
304	1.2625	345.47	1287.6	294.54	207.18	1443	433.99	237.73	1472.5	135.98	216.8	1765.2	311.37	279.18	1018.5	396.16	297.72	1036.2	167.44	86.257	1038.7	295.2	97.882	1048.6	214.36	206.76	939.54	463.91	238.87	974.58	104.17	178.72	1097.6	432.99	234.25	1109.9	135.62	70.83	1009.2	254.37	290.99	740.72	474.13	370.38	684.13	443.31	314.42	654.2	471.17	347.15	772.62	441.64	338.49	528.48	436.97	357.58	530.77	306.14	166.27	380.36	417.17	184.88	290.64	409.98	125.28	319.03	410.28	232.18	351.22	419.74	81.528	218.68	388.18	105.66	218.44	311.82	14.357	212.87	327.58	8.579	184.95	300.31	-2.5573	193.58	361.05	116.17	84.319	431.29	158.47	68.671	330.71	208.07	52.344	381.09	202.49	691.75	120.71	273.89	612.58	150.62	202.7	598.88	147.14	280.65	700.35	124.78	237.44	513.68	161.09	244.92	516.97	289.07	149.61	308.89	163.4	202.87	213.83	184.24	142.81	232.28	174.73	210.89	289.73	171.93	153.59	108.84	190.69	165.63	122.03	277.31	81.247	79.249	234.31	90.538	47.311	267.84	88.913	49.206	203.15	267.33	41.093	171	291.2	45.573	280.83	347.79	55.543	234.69	145.82	1507	287.45	62.04	1300.2	263.81
305	1.2667	350.5	1288.1	294.94	211.65	1443.3	434.03	243.72	1473.3	136.26	222.13	1765.6	311.69	283.87	1019.2	396.09	302.9	1036.5	167.39	91.188	1039.3	294.88	103.01	1049	214.02	211.71	940.46	463.93	243.94	974.64	104.19	183.36	1098.3	432.68	239.58	1110.2	135.4	75.828	1009.7	254.03	297.59	742.12	474.11	377.2	686.06	442.86	321.65	655.78	471.15	353.17	774.36	441.22	346.17	529.92	436.63	364.67	532.7	306.02	176.39	378.34	417.02	196.88	289.07	410	136.72	316.17	410.25	242.89	350.58	419.66	94.992	214.73	388.24	119.37	214.84	311.97	27.669	206.64	327.62	22.833	178.35	300.55	11.458	186.96	361.23	133.67	82.042	432.15	176.51	67.081	331.61	226.56	52.652	382.07	205.31	692.29	120.71	276.07	612.51	150.5	204.76	599.41	147.07	283.53	700.25	124.73	238.7	513.81	160.8	246.52	516.98	288.78	150.27	309.23	163.29	203.22	214	184.09	143.29	232.66	174.63	211.45	289.91	171.74	153.73	108.99	190.7	165.72	122.3	277.27	81.374	79.428	234.38	90.671	47.458	267.89	88.997	49.413	203.18	267.37	41.034	170.99	291.22	45.48	280.86	347.88	55.348	234.66	151.06	1507.4	287.23	67.322	1300.8	262.89
